<?xml version="1.0" encoding="UTF-8"?>
<svg width="36px" height="40px" viewBox="0 0 36 40" version="1.1" xmlns="http://www.w3.org/2000/svg" xmlns:xlink="http://www.w3.org/1999/xlink">
    <!-- Generator: Sketch 48.2 (47327) - http://www.bohemiancoding.com/sketch -->
    <title>ic_event_black_24px</title>
    <desc>Created with Sketch.</desc>
    <defs>
        <linearGradient x1="-0.0269591808%" y1="50.0269592%" x2="100.026959%" y2="50.0269592%" id="linearGradient-1">
            <stop stop-color="#2C5BFC" offset="0%"></stop>
            <stop stop-color="#42D5FC" offset="100%"></stop>
        </linearGradient>
    </defs>
    <g id="Landing-Page" stroke="none" stroke-width="1" fill="none" fill-rule="evenodd" transform="translate(-104.000000, -3442.000000)">
        <g id="bloc_4" transform="translate(0.000000, 3327.000000)">
            <g id="ic_event_black_24px" transform="translate(98.000000, 113.000000)">
                <polygon id="Shape" points="0 0 48 0 48 48 0 48"></polygon>
                <path d="M34,24 L24,24 L24,34 L34,34 L34,24 Z M32,2 L32,6 L16,6 L16,2 L12,2 L12,6 L10,6 C7.78,6 6.02,7.8 6.02,10 L6,38 C6,40.2 7.78,42 10,42 L38,42 C40.2,42 42,40.2 42,38 L42,10 C42,7.8 40.2,6 38,6 L36,6 L36,2 L32,2 Z M38,38 L10,38 L10,16 L38,16 L38,38 Z" id="Shape" fill="url(#linearGradient-1)" fill-rule="nonzero"></path>
            </g>
        </g>
    </g>
</svg>