<?xml version="1.0" encoding="UTF-8"?>
<svg width="32px" height="44px" viewBox="0 0 32 44" version="1.1" xmlns="http://www.w3.org/2000/svg" xmlns:xlink="http://www.w3.org/1999/xlink">
    <!-- Generator: Sketch 48.2 (47327) - http://www.bohemiancoding.com/sketch -->
    <title>Shape</title>
    <desc>Created with Sketch.</desc>
    <defs>
        <linearGradient x1="3.061617e-15%" y1="50%" x2="100%" y2="50%" id="linearGradient-1">
            <stop stop-color="#FE012C" offset="0%"></stop>
            <stop stop-color="#FE029B" offset="100%"></stop>
        </linearGradient>
    </defs>
    <g id="Landing-Page" stroke="none" stroke-width="1" fill="none" fill-rule="evenodd" transform="translate(-913.000000, -1266.000000)">
        <g id="bloc_1" transform="translate(60.000000, 212.000000)" fill="url(#linearGradient-1)" fill-rule="nonzero">
            <g id="features" transform="translate(224.000000, 1052.000000)">
                <g id="item" transform="translate(621.000000, 0.000000)">
                    <g id="ic_sync_black_24px">
                        <path d="M24,8 L24,2 L16,10 L24,18 L24,12 C30.62,12 36,17.38 36,24 C36,26.02 35.5,27.94 34.6,29.6 L37.52,32.52 C39.08,30.06 40,27.14 40,24 C40,15.16 32.84,8 24,8 Z M24,36 C17.38,36 12,30.62 12,24 C12,21.98 12.5,20.06 13.4,18.4 L10.48,15.48 C8.92,17.94 8,20.86 8,24 C8,32.84 15.16,40 24,40 L24,46 L32,38 L24,30 L24,36 Z" id="Shape"></path>
                    </g>
                </g>
            </g>
        </g>
    </g>
</svg>